<svg width="30" height="30" viewBox="0 0 30 30" xmlns="http://www.w3.org/2000/svg" xmlns:xlink="http://www.w3.org/1999/xlink"><defs><ellipse id="a" cx="15" cy="15" rx="15" ry="15"/><mask id="b" x="0" y="0" width="30" height="30" fill="#fff"><use xlink:href="#a"/></mask></defs><g fill="none" fill-rule="evenodd"><use stroke="#FFF" mask="url(#b)" stroke-width="4" xlink:href="#a"/><path d="M23 13.086v6.646c0 .368-.131.684-.393.946a1.29 1.29 0 0 1-.946.393H9.339a1.29 1.29 0 0 1-.946-.393A1.29 1.29 0 0 1 8 19.732v-6.646c.246.273.527.516.845.728 2.02 1.373 3.407 2.336 4.16 2.888.319.234.577.417.775.548.198.131.462.265.79.402.33.137.637.205.922.205h.016c.285 0 .592-.068.921-.205.33-.137.593-.27.791-.402.198-.13.456-.314.774-.548.95-.686 2.339-1.649 4.169-2.888.318-.217.597-.46.837-.728zm0-2.461c0 .44-.137.862-.41 1.264a3.98 3.98 0 0 1-1.021 1.03 6758.74 6758.74 0 0 0-3.918 2.72l-.356.255c-.18.131-.332.237-.452.318-.12.081-.265.172-.435.272-.17.1-.33.176-.481.226-.15.05-.29.076-.419.076h-.016a1.33 1.33 0 0 1-.419-.076 2.536 2.536 0 0 1-.481-.226c-.17-.1-.315-.19-.435-.272-.12-.08-.271-.187-.452-.318l-.356-.255c-.508-.357-1.24-.866-2.193-1.528A385.962 385.962 0 0 1 9.44 12.92a4.156 4.156 0 0 1-.98-.967c-.307-.41-.46-.791-.46-1.143 0-.435.116-.798.347-1.088.232-.29.563-.435.992-.435h12.322c.362 0 .676.13.941.393.265.262.398.578.398.946z" fill="#FFF"/></g></svg>