<svg width="30" height="30" viewBox="0 0 30 30" xmlns="http://www.w3.org/2000/svg" xmlns:xlink="http://www.w3.org/1999/xlink"><title>linkedin</title><defs><ellipse id="a" cx="15" cy="15" rx="15" ry="15"/><mask id="b" x="0" y="0" width="30" height="30" fill="#fff"><use xlink:href="#a"/></mask></defs><g fill="none" fill-rule="evenodd"><use stroke="#FFF" mask="url(#b)" stroke-width="4" xlink:href="#a"/><path d="M11.921 12.374v8.296H9.16v-8.296h2.762zm.176-2.56c.006.406-.135.747-.423 1.02-.287.274-.665.41-1.134.41h-.017c-.457 0-.825-.136-1.104-.41A1.372 1.372 0 0 1 9 9.814c0-.414.144-.756.431-1.026.287-.271.663-.406 1.126-.406.463 0 .834.135 1.113.406.28.27.422.612.427 1.025zm4.102 3.74c.106-.168.215-.316.326-.443.117-.134.275-.279.473-.435.198-.156.44-.278.728-.364.288-.087.607-.13.959-.13.954 0 1.721.317 2.302.95.58.633.87 1.561.87 2.783v4.755h-2.754v-4.437c0-.586-.113-1.045-.339-1.377-.226-.332-.579-.498-1.059-.498-.351 0-.646.097-.883.289a1.78 1.78 0 0 0-.531.716c-.062.167-.092.393-.092.678v4.629h-2.754c.01-2.227.016-4.032.016-5.416 0-1.384-.002-2.21-.008-2.478l-.008-.402h2.754v1.18z" fill="#FFF"/></g></svg>