<svg width="30" height="30" viewBox="0 0 30 30" xmlns="http://www.w3.org/2000/svg" xmlns:xlink="http://www.w3.org/1999/xlink"><title>twitter</title><defs><ellipse id="a" cx="15" cy="15" rx="15" ry="15"/><mask id="b" x="0" y="0" width="30" height="30" fill="#fff"><use xlink:href="#a"/></mask></defs><g fill="none" fill-rule="evenodd"><use stroke="#FFF" mask="url(#b)" stroke-width="4" xlink:href="#a"/><path d="M21.56 11.558a5.665 5.665 0 0 1-1.356 1.398 7.68 7.68 0 0 1-.31 2.524 7.85 7.85 0 0 1-.966 2.08 8.177 8.177 0 0 1-1.545 1.762c-.597.51-1.317.918-2.16 1.222A7.904 7.904 0 0 1 12.52 21a7.508 7.508 0 0 1-4.152-1.214c.196.023.413.034.653.034a5.293 5.293 0 0 0 3.357-1.155 2.636 2.636 0 0 1-1.574-.54 2.645 2.645 0 0 1-.954-1.335c.184.028.354.041.51.041.24 0 .478-.03.712-.092a2.66 2.66 0 0 1-1.553-.933 2.612 2.612 0 0 1-.615-1.72v-.034c.38.213.787.327 1.222.344a2.7 2.7 0 0 1-.879-.963 2.634 2.634 0 0 1-.326-1.289c0-.491.123-.946.368-1.364a7.664 7.664 0 0 0 2.465 1.996c.968.5 2.005.777 3.11.833a3.003 3.003 0 0 1-.067-.62c0-.747.264-1.385.79-1.912a2.606 2.606 0 0 1 1.914-.791c.78 0 1.44.284 1.975.854a5.301 5.301 0 0 0 1.716-.653 2.625 2.625 0 0 1-1.189 1.49 5.387 5.387 0 0 0 1.557-.419z" fill="#FFF"/></g></svg>