<svg width="182" height="30" viewBox="0 0 182 30" xmlns="http://www.w3.org/2000/svg"><g fill="#27989F" fill-rule="evenodd"><text transform="translate(135 1)" font-size="24" font-family="Lato-Light, Lato" font-weight="300"><tspan x="0" y="24">docs</tspan></text><path d="M11.968 14.304a110.579 110.579 0 0 1-1.584 5.488 174.197 174.197 0 0 1-1.68 5.04H5.536a68.661 68.661 0 0 1-1.344-3.36c-.47-1.259-.939-2.603-1.408-4.032a164.17 164.17 0 0 1-1.408-4.512C.906 11.349.448 9.738 0 8.096h4.096c.192.896.416 1.861.672 2.896.256 1.035.523 2.09.8 3.168.277 1.077.565 2.128.864 3.152.299 1.024.597 1.963.896 2.816a115.787 115.787 0 0 0 1.824-6.176c.277-1.045.539-2.064.784-3.056s.464-1.925.656-2.8h2.976a177.81 177.81 0 0 0 1.392 5.856 85.75 85.75 0 0 0 .864 3.136c.31 1.045.624 2.059.944 3.04.277-.853.565-1.792.864-2.816.299-1.024.592-2.075.88-3.152.288-1.077.56-2.133.816-3.168.256-1.035.48-2 .672-2.896h4a221.14 221.14 0 0 1-1.376 4.832c-.47 1.579-.939 3.083-1.408 4.512-.47 1.43-.939 2.773-1.408 4.032a51.341 51.341 0 0 1-1.376 3.36h-3.136a270.512 270.512 0 0 1-1.712-5.04 91.535 91.535 0 0 1-1.616-5.488zm28.016 5.76c-.384 1.088-.928 2.016-1.632 2.784a7.338 7.338 0 0 1-2.544 1.792c-.992.427-2.085.64-3.28.64-1.195 0-2.283-.213-3.264-.64a7.375 7.375 0 0 1-2.528-1.792c-.704-.768-1.253-1.696-1.648-2.784-.395-1.088-.592-2.293-.592-3.616s.197-2.523.592-3.6c.395-1.077.95-2 1.664-2.768a7.354 7.354 0 0 1 2.544-1.776c.981-.416 2.059-.624 3.232-.624s2.256.208 3.248.624a7.16 7.16 0 0 1 2.544 1.776c.704.768 1.253 1.69 1.648 2.768.395 1.077.592 2.277.592 3.6s-.192 2.528-.576 3.616zm-3.392-3.616c0-1.664-.357-2.981-1.072-3.952-.715-.97-1.712-1.456-2.992-1.456s-2.277.485-2.992 1.456c-.715.97-1.072 2.288-1.072 3.952 0 1.685.357 3.019 1.072 4 .715.981 1.712 1.472 2.992 1.472s2.277-.49 2.992-1.472c.715-.981 1.072-2.315 1.072-4zm16.304-4.864c-.32-.107-.763-.219-1.328-.336a9.767 9.767 0 0 0-1.968-.176c-.427 0-.88.043-1.36.128-.48.085-.816.16-1.008.224v13.408H43.36V8.896c.747-.277 1.68-.539 2.8-.784 1.12-.245 2.363-.368 3.728-.368.256 0 .555.016.896.048.341.032.683.075 1.024.128.341.053.672.117.992.192.32.075.576.144.768.208l-.672 3.264zm6.032 3.04a373.99 373.99 0 0 0 1.568-1.648 122.76 122.76 0 0 0 1.632-1.76c.533-.587 1.04-1.152 1.52-1.696s.89-1.019 1.232-1.424h4.576a285.44 285.44 0 0 1-3.376 3.712 171.88 171.88 0 0 1-3.568 3.744 22.17 22.17 0 0 1 2.016 1.936 35.352 35.352 0 0 1 2.048 2.416c.661.853 1.28 1.707 1.856 2.56a26.183 26.183 0 0 1 1.44 2.368h-4.48a31.467 31.467 0 0 0-1.328-2.08 27.675 27.675 0 0 0-1.616-2.112 34.576 34.576 0 0 0-1.76-1.936 15.052 15.052 0 0 0-1.76-1.552v7.68h-3.872V.64L58.928 0v14.624zm18.448 7.488c1.195 0 2.101-.064 2.72-.192v-4.288a7.532 7.532 0 0 0-.928-.192 8.651 8.651 0 0 0-1.344-.096c-.427 0-.859.032-1.296.096a4.038 4.038 0 0 0-1.184.352c-.352.17-.635.41-.848.72-.213.31-.32.699-.32 1.168 0 .917.288 1.552.864 1.904.576.352 1.355.528 2.336.528zm-.32-14.432c1.28 0 2.357.16 3.232.48.875.32 1.573.768 2.096 1.344.523.576.896 1.275 1.12 2.096.224.821.336 1.723.336 2.704v10.144c-.597.128-1.499.283-2.704.464-1.205.181-2.565.272-4.08.272-1.003 0-1.92-.096-2.752-.288-.832-.192-1.541-.501-2.128-.928a4.379 4.379 0 0 1-1.376-1.664c-.33-.683-.496-1.525-.496-2.528 0-.96.187-1.77.56-2.432.373-.661.88-1.2 1.52-1.616.64-.416 1.381-.715 2.224-.896a12.519 12.519 0 0 1 2.64-.272 11.919 11.919 0 0 1 2.848.352v-.64a5.01 5.01 0 0 0-.16-1.28 2.653 2.653 0 0 0-.56-1.072 2.62 2.62 0 0 0-1.056-.72c-.437-.17-.987-.256-1.648-.256-.896 0-1.717.064-2.464.192-.747.128-1.355.277-1.824.448l-.48-3.136c.49-.17 1.205-.341 2.144-.512.939-.17 1.941-.256 3.008-.256zm10.128-4l3.872-.64v5.056h5.952v3.232h-5.952v6.816c0 1.344.213 2.304.64 2.88.427.576 1.152.864 2.176.864.704 0 1.328-.075 1.872-.224.544-.15.976-.288 1.296-.416l.64 3.072c-.448.192-1.035.39-1.76.592-.725.203-1.579.304-2.56.304-1.195 0-2.192-.16-2.992-.48-.8-.32-1.435-.784-1.904-1.392-.47-.608-.8-1.344-.992-2.208-.192-.864-.288-1.85-.288-2.96V3.68zm27.504 12.768c0 1.323-.192 2.528-.576 3.616-.384 1.088-.928 2.016-1.632 2.784a7.338 7.338 0 0 1-2.544 1.792c-.992.427-2.085.64-3.28.64-1.195 0-2.283-.213-3.264-.64a7.375 7.375 0 0 1-2.528-1.792c-.704-.768-1.253-1.696-1.648-2.784-.395-1.088-.592-2.293-.592-3.616s.197-2.523.592-3.6c.395-1.077.95-2 1.664-2.768a7.354 7.354 0 0 1 2.544-1.776c.981-.416 2.059-.624 3.232-.624s2.256.208 3.248.624a7.16 7.16 0 0 1 2.544 1.776c.704.768 1.253 1.69 1.648 2.768.395 1.077.592 2.277.592 3.6zm-3.968 0c0-1.664-.357-2.981-1.072-3.952-.715-.97-1.712-1.456-2.992-1.456s-2.277.485-2.992 1.456c-.715.97-1.072 2.288-1.072 3.952 0 1.685.357 3.019 1.072 4 .715.981 1.712 1.472 2.992 1.472s2.277-.49 2.992-1.472c.715-.981 1.072-2.315 1.072-4zM125 0h1v30h-1z"/></g></svg>